<svg xmlns="http://www.w3.org/2000/svg" width="500" height="145.213" viewBox="0 0 500 145.213">
  <g id="Group_2" data-name="Group 2" transform="translate(-181.202 -401.77)">
    <g id="Group_1" data-name="Group 1">
      <path id="Path_1" data-name="Path 1" d="M40.452,1l.479.12h3.592l.12.12h1.078l.958.359h1.557q.18.3.838.12l.6.359,1.8.12.479.359,1.317.12a1.661,1.661,0,0,0,1.557.479l.718.479h.479l.718.479H57.1a1.4,1.4,0,0,0,1.2.6l.359.359.659.12.18.359,1.377.718.18.359.419.18.18.3.419.3v.18q.455-.18.359.18l.12.3q.443-.18.359.18l.12.3.479.3,1.437,1.916.12.539q.323-.132.239.18l.6.958.12.718.359.359.12.838.479.6v.6l.479.838v.838l.479,1.078v1.2l.479,1.676.12,4.789.12.12V64.639l-.12.12v1.078l.12.12V78.528l-.12.12V80.8l.12.12V83.2l-.12.12V97.206l.359,1.557.12,3.592.359.838.12,2.275.479,1.078v1.2a1.776,1.776,0,0,1,.479,1.8l.479.838v.838l.359.479.239,1.317.359.479.12.838a1.4,1.4,0,0,1,.479,1.2l.479.718v.479l.359.359.12.718.359.359.718,1.676.479.6v.419l.359.18.12.479.659,1.018q.275-.084.18.18l.718,1.257.359.18.12.419q.323-.132.239.18a.406.406,0,0,1,.239.539l.479.3q-.132.4.18.3l.479.6q.275-.084.18.18l2.514,2.395.18.3,2.514,1.916.659.239q-.132.323.18.239l.659.239q-.132.323.18.239l.659.239.18.359h.479l.6.479H88.6l1.916.958.958.12.958.479h.718l.958.479h1.2l1.437.479,2.993.12,1.2.239h3.592l.12-.12,1.916-.12.12-.12H108.7l.838-.359,1.676-.12.6-.12.6-.359,1.317-.12.479-.359,1.078-.12a1.588,1.588,0,0,1,1.437-.479l.359-.359.838-.12a1.8,1.8,0,0,1,1.317-.6l.359-.359q.539.12.659-.18-.1-.311.3-.18l.958-.6.6-.12,1.736-1.137q-.084-.263.18-.18l1.257-.718.18-.359.419-.12.18-.359.958-.479h2.035l.3.12q-.156.4.419.239L130.8,129l.359,1.5-.239.239-.12.838-.18.18q-.551-.156-.3.539l-.359.18a8.591,8.591,0,0,1-2.215,2.514l-1.377,1.137q.1.275-.18.18l-.3.12-.3.479q-.4-.132-.3.18l-2.035,1.437-.18.3-.659.3q.1.275-.18.18l-.419.12-.18.359-.479.12-.359.359a1.437,1.437,0,0,0-1.078.6h-.359l-.359.359-1.2.6-.6.12-.359.359-.838.12-.359.359-.838.12-.718.479h-.6l-.718.479h-.838l-.479.359-1.676.239-.6.359-1.8.12-.6.359-2.634.12-1.437.359-5.987.12-.12-.12H94.8l-1.2-.359H91.459q-.18-.3-.838-.12l-.718-.359-2.035-.12-1.2-.479H85.83l-1.078-.479h-.838l-.958-.479H82.24L81.4,142.9h-.6l-.718-.479h-.479l-.659-.239q.156-.4-.419-.239l-.479-.12-.359-.359-.718-.12a1.4,1.4,0,0,0-1.2-.6l-.359-.359-.6-.12-.359-.359-.479-.12L71.4,138.155q.1-.263-.18-.18l-1.257-.718-.18-.359-.419-.12q.132-.323-.18-.239l-1.736-1.377-.18-.3-.3-.18-.18-.3-.419-.3q.1-.263-.18-.18l-.3-.12-.18-.359q-.263.1-.18-.18l-.12-.3-.479-.3-.18-.3-.3-.18v-.419h-.47v-.18l-1.257-1.616q-.263.1-.18-.18l-.958-1.2-.239-.659-.359-.18-.12-.539q-.323.132-.239-.18l-.239-.659-.359-.18-1.2-2.395-.359-.359v-.359a1.8,1.8,0,0,1-.6-1.317l-.359-.359-.12-.718-.479-.718v-.479l-.359-.359-.239-1.2-.359-.479v-.6L55.479,116l-.12-1.078L55,114.448l-.12-1.2-.359-.6-.12-.6v-.838l-.479-1.078v-1.2l-.359-.6-.12-.6v-1.557l-.479-1.437v-1.916l-.479-1.916V98.4l-.12-.12V96.608l-.239-.958V93.734l-.12-.12V42.248l-.18-.18-.539.12q.132.323-.18.239l-1.137.239q.132.323-.18.239l-1.018.239q.132.323-.18.239a1.172,1.172,0,0,1-1.018.239q.132.323-.18.239-.2.335-.838.239l-.718.479h-.359l-.718.479-.778.12q.132.323-.18.239l-1.2.6h-.359l-.718.479-.6.12-.359.359-.718.12-.359.359-2.634,1.2-.359.359-.6.12-1.2.838-.6.12-.479.479-.539.12q.132.323-.18.239l-1.2.6-.479.479-.479.12-3.233,2.4-.419.12-.18.359-.419.18-.18.3-.9.6-.18.359-2.694,2.574-.778,1.018q-.311-.1-.18.3l-.479.479-.6,1.2-.359.359-.12.479-.359.359-.12.718-.479.6v.718l-.479.718v.958L18.1,68.478V71.95l.359.718.12,1.557.479.718v.479a.965.965,0,0,1,.479.958l.6.718v.3l.359.18.18.419.3.18.3.419q.275-.084.18.18l.479.3.3.479.3.18q-.084.275.18.18l1.257.778q-.084.275.18.18l1.2.6h.359l.479.359,1.2.12,1.437.479H33.86l1.2-.479h.958l.718-.479h.6L37.7,81.1l.6-.12,1.437-.958.479-.12.479-.479h.3l.18-.359a1.29,1.29,0,0,0,.958-.718h.3l.18-.359.419-.3q-.084-.263.18-.18l.3-.12q-.18-.443.18-.359l.3-.12.3-.479q.311.1.18-.3l.479-.359q-.132-.4.18-.3l.419-.12v2.1l-.479,1.078-.12.958a1.4,1.4,0,0,0-.479,1.2l-.359.359-.239.718L42.727,83.5q-.311-.1-.18.3l-.12.3-.359.18-.778,1.137-.3.18-.18.3-.3.18-.18.3-.419.3-.18.3L38,88.226q.1.275-.18.18l-1.257.718q.132.323-.18.239l-.838.6h-.359l-.6.479h-.359l-.718.479-.718.12-.838.479h-.659q.156.359-.3.239A1.716,1.716,0,0,1,29.557,92l-.479.359-2.155.12-1.317.359H21.534l-1.557-.359H18.062q-.156-.263-.718-.12l-.6-.359-1.437-.12-.479-.359-.958-.12-.479-.359-.838-.12-.718-.479h-.359L11,89.962l-.6-.12L8.663,88.705q.1-.263-.18-.18l-1.018-.778q.1-.263-.18-.18l-.3-.12-.18-.359-.419-.3q.1-.263-.18-.18l-.3-.479-.359-.18-.12-.419-.359-.18-.6-1.018-.359-.18-.3-.659q-.263.1-.18-.18l-.6-.958V82l-.479-.6v-.479L2.078,80.2v-.6L1.6,78.648l-.12-1.557-.359-.718L1,71.583l.12-.12V69.787l.359-.718.12-1.676.359-.479.12-.958.479-.718v-.479l.479-.718v-.359l.479-.6.718-1.5.359-.18.479-.958,1.137-1.377.3-.18.3-.419q.275.1.18-.18l.479-.3.12-.479.958-.659q-.144-.443.3-.3l.359-.479L10.519,55l.419-.12.18-.359.419-.18.18-.3h.239l1.317-1.078h.3l.18-.359.958-.6h.419l.18-.479.659-.12.18-.359.479-.12,1.437-.958h.419l.18-.359,2.574-1.2q-.132-.323.18-.239l.718-.239.359-.359.659-.12q-.132-.323.18-.239l2.4-1.2h.359l.6-.479.778-.12q-.132-.323.18-.239l.838-.239.359-.359.718-.12.359-.359.838-.12.6-.479h.479l.6-.479h.479l.6-.479h.479a1.459,1.459,0,0,1,1.317-.6l.359-.359.9-.12.18-.359.718-.12.359-.359.838-.12.6-.479q.635.156.778-.18-.084-.263.18-.18l.9-.239q-.132-.323.18-.239l.6-.12.6-.479.718-.12.359-.359L44.4,38l.359-.359a1.459,1.459,0,0,0,1.317-.6h.479l.6-.479h.479l.6-.479h.479l.718-.479h.359l.718-.479.718-.12a.526.526,0,0,1,.659-.359l.12-.3V23.33l-.12-.12V20.217l-.359-1.676-.12-3.472-.359-.718-.12-2.035-.359-.6L50.45,10.4l-.479-.958v-.6a1.831,1.831,0,0,1-.6-1.437l-.359-.359-.12-.479L48.235,5.55q-.263.1-.18-.18l-.718-1.018-1.317-.9-.18-.3q-.8.084-.958-.479l-.718-.12L43.8,2.2h-.838l-1.078-.479-1.856-.239.18-.359Z" transform="translate(180.202 401.088)" fill="#95bf47"/>
      <path id="Path_2" data-name="Path 2" d="M57.126,3l.778.12-.3.6-.838.239L54.792,5.035l-.18.359-.419.18-.18.3-.9.778q.1.275-.18.18l-.479.6q-.263-.084-.18.18L51.2,9.047l-.12.659q-.323-.132-.239.18L50.6,10.6l-.359.359v.718l-.479.718-.12,1.437-.359.6-.12,2.874q-.3.18-.12.838l-.239.479-.12,2.514-.359.6-.12,1.078-.479.718v.479l-.778,1.257q-.311-.1-.18.3l-.479.3-.12.479-.479.18-.18.3-.6.479-.6.12-.71.473q-.97-.132-1.317.359H40.364l-.718-.359-1.317-.12-2.1-1.137q.1-.263-.18-.18l-.419-.3q.1-.263-.18-.18l-.479-.6q-.263.1-.18-.18l-.6-.718-.958-2.155L33,19.463l.239-1.2V16.949l.479-.718v-.718l1.736-3.173q.275.1.18-.18l1.377-1.736,2.335-1.736q-.084-.263.18-.18l.659-.239.18-.359a.9.9,0,0,0,.835-.48l.659-.12q-.132-.323.18-.239l2.4-1.2h.6l.718-.479a1.588,1.588,0,0,0,1.437-.479l1.2-.12.479-.359,1.557-.12.239-.239,1.078-.239h1.2L53.3,3.6l1.078-.239h1.916Z" transform="translate(152.034 399.328)" fill="#95bf47"/>
      <path id="Path_3" data-name="Path 3" d="M671.167,462h3.018l.755.24,3.126.12.647.359,1.725.12.862.479h.862l.431.359.97.12.647.479.755.12.323.359.755.12.323.359,1.4.6,2.318,1.736q-.075.275.162.18l.377.3.162.3.269.18.162.3.377.3q-.076.275.162.18l.431.6q.248-.084.162.18l.97,1.437a.953.953,0,0,0,.431.838l.108.838.323.359.216,2.874-.108.12-.108,2.035-.323.359-.216.9q-.291-.132-.216.18a2.729,2.729,0,0,1-1.025,1.37l-2.156,1.437q-.873-.132-1.186.359-.593-.18-.755.12h-2.8l-.539-.12-.539-.359-.97-.12-.323-.359-.7-.3q.086-.311-.269-.18l-.916-.778-.162-.3-.377-.3-.162-.3-.269-.18-.162-.3-.269-.18-1.132-1.736-.269-.18q.119-.4-.162-.3l-1.24-1.916-.431-.3-.162-.3-.269-.18-.162-.3-.269-.18-.162-.3-2.264-2.036h-.216l-1.294-.958-.539-.12-.323-.359a1.352,1.352,0,0,1-1.294-.479l-1.294-.12-.539-.359q-.507.156-.647-.12l-4.312-.12-.108.12H660.5q-.129.275-.647.12l-.647.359-1.4.12-.539.359-.97.12-.323.359-.862.12-.323.359-.539.12-.539.479h-.323a.821.821,0,0,1-.755.479l-.431.479-.485.12-.162.359-.377.12-.269.479-.27.18-.162.3-.269.18-.162.3-.539.239.054-.18a1.593,1.593,0,0,1,.647-1.2v-.419l.323-.18.216-.659.323-.18q-.054-.479.27-.539.28.1.162-.3l.431-.359.7-.9q.248.1.162-.18l.862-.778.269-.479.809-.479.162-.359,1.132-.778q-.075-.263.162-.18l.755-.6h.323l.431-.479,1.4-.6.323-.359.755-.12.323-.359.755-.12.647-.479h.647l.755-.479h.755l.862-.479,1.617-.12.755-.359,3.018-.12Z" transform="translate(-479.341 194.24) rotate(-14)" fill="#5e8e3e"/>
    </g>
    <path id="Path_4" data-name="Path 4" d="M75.175-101.218c-7.037,0-13.773,3.318-17.091,10.154C55.369-97.9,48.935-101.218,41.7-101.218c-7.037,0-13.271,3.217-16.588,9.852l-.5-8.847H12.24v50.267H26.013V-76.587c0-9.852,5.73-13.773,11.059-13.773,5.127,0,8.747,2.815,8.747,10.154v30.261H59.592V-76.989c0-8.747,4.926-13.371,11.059-13.371,5.027,0,8.646,2.815,8.646,10.154v30.261H92.97l.1-32.975C93.171-95.287,84.927-101.218,75.175-101.218ZM153.19-58.29c-2.614,0-3.72-1.206-3.72-3.82V-82.72c0-12.466-8.847-18.5-22.821-18.5-12.265,0-19.805,5.429-21.917,13.974l10.958,4.625c1.508-6.334,5.73-8.545,11.562-8.545,5.429,0,8.545,3.418,8.545,8.747v2.413l-12.064,2.312c-13.472,2.513-19.6,8.043-19.6,15.885,0,8.445,6.032,12.868,15.583,12.868,8.445,0,14.779-2.614,17.8-7.54,1.408,5.429,5.529,7.54,11.562,7.54a14.573,14.573,0,0,0,6.535-1.407l1.005-8.344a12.268,12.268,0,0,1-3.423.4Zm-29.155,0c-3.619,0-5.73-1.709-5.73-4.926,0-3.318,2.312-4.926,6.736-5.932L135.8-71.56v5.228C135.8-61,129.263-58.29,124.035-58.29ZM193.4-101.218c-7.842,0-12.969,3.921-15.583,10.858l-.9-9.852H164.953v50.267h13.773V-75.984c0-9.149,6.032-13.572,12.064-13.572a12.257,12.257,0,0,1,6.334,1.508l1.709-12.064A11.514,11.514,0,0,0,193.4-101.218Zm47.855-19.012v28.16c-2.916-5.529-8.344-9.149-15.683-9.149-13.271,0-21.514,9.752-21.514,26.24,0,16.387,8.143,26.039,21.514,26.039,7.741,0,13.673-4.021,16.588-10.053l.6,9.048h12.265V-120.23ZM229.7-59.5c-7.339,0-11.763-5.328-11.763-15.583s4.424-15.583,11.763-15.583c6.635,0,10.858,4.625,11.562,12.667v5.831C240.555-63.92,236.232-59.5,229.7-59.5Zm86.859-15.78c0-16.488-8.545-25.938-24.229-25.938-16.186,0-25.335,9.651-25.335,26.139s9.45,26.139,26.139,26.139c11.36,0,19.1-4.323,22.319-12.366l-11.26-4.122c-1.408,4.021-5.228,6.233-11.059,6.233-6.736,0-11.159-3.418-12.567-10.657h35.589a47.544,47.544,0,0,0,.4-5.428ZM292.23-91.064c6.334,0,10.556,4.021,11.662,11.562H280.467C281.573-87.143,285.6-91.064,292.23-91.064ZM375.071-75.28c0-16.488-8.545-25.938-24.229-25.938-16.186,0-25.335,9.651-25.335,26.139s9.45,26.139,26.139,26.139c11.36,0,19.1-4.323,22.319-12.366L362.7-65.428c-1.407,4.021-5.228,6.233-11.059,6.233-6.736,0-11.159-3.418-12.567-10.657h35.589a47.54,47.54,0,0,0,.408-5.428Zm-24.33-15.784c6.334,0,10.556,4.021,11.662,11.562H338.979C340.085-87.143,344.106-91.064,350.741-91.064Zm65.448-10.154c-8.043,0-14.075,4.323-16.89,10.757l-.5-9.752H386.632v71.38H400.4V-58.29a17.008,17.008,0,0,0,15.784,9.35c13.271,0,21.514-9.752,21.514-26.24C437.7-91.567,429.561-101.218,416.189-101.218ZM412.068-59.5c-7.238,0-11.662-5.529-11.662-15.08v-1c0-9.752,4.524-15.08,11.662-15.08,7.339,0,11.763,5.328,11.763,15.583S419.407-59.5,412.068-59.5Z" transform="translate(243.499 522)" fill="#5e8e3e"/>
    <path id="Path_5" data-name="Path 5" d="M42.2-101.218c-7.138,0-12.969,3.117-16.186,9.551V-122.23H12.24v72.285H26.013V-76.487c0-10.053,5.73-13.874,11.562-13.874,5.228,0,8.948,2.815,8.948,11.461v28.954H60.3V-82.921C60.3-95.086,52.655-101.218,42.2-101.218ZM120.416-58.29c-2.614,0-3.72-1.206-3.72-3.82V-82.72c0-12.466-8.847-18.5-22.821-18.5-12.265,0-19.805,5.429-21.917,13.974l10.958,4.625c1.508-6.334,5.73-8.545,11.562-8.545,5.429,0,8.545,3.418,8.545,8.747v2.413L90.959-77.693c-13.472,2.513-19.6,8.043-19.6,15.885,0,8.445,6.032,12.868,15.583,12.868,8.445,0,14.779-2.614,17.795-7.54,1.407,5.429,5.529,7.54,11.562,7.54a14.573,14.573,0,0,0,6.535-1.407l1.005-8.344a12.269,12.269,0,0,1-3.423.4Zm-29.155,0c-3.619,0-5.73-1.709-5.73-4.926,0-3.318,2.312-4.926,6.736-5.932l10.757-2.413v5.228c0,5.333-6.536,8.043-11.764,8.043Zm70.877-42.928c-7.138,0-12.969,3.117-16.186,9.551V-122.23H132.178v72.285h13.773V-76.487c0-10.053,5.73-13.874,11.562-13.874,5.228,0,8.948,2.815,8.948,11.461v28.954h13.773V-82.921C180.234-95.086,172.593-101.218,162.138-101.218ZM240.354-58.29c-2.614,0-3.72-1.206-3.72-3.82V-82.72c0-12.466-8.847-18.5-22.821-18.5-12.265,0-19.805,5.429-21.917,13.974l10.958,4.625c1.508-6.334,5.73-8.545,11.562-8.545,5.429,0,8.545,3.418,8.545,8.747v2.413L210.9-77.693c-13.472,2.513-19.6,8.043-19.6,15.885,0,8.445,6.032,12.868,15.583,12.868,8.445,0,14.779-2.614,17.795-7.54,1.407,5.429,5.529,7.54,11.562,7.54a14.573,14.573,0,0,0,6.535-1.407l1.005-8.344a12.269,12.269,0,0,1-3.426.4Zm-29.155,0c-3.619,0-5.73-1.709-5.73-4.926,0-3.318,2.312-4.926,6.736-5.932l10.757-2.413v5.228c0,5.333-6.536,8.043-11.762,8.043Zm54.49-63.94H251.915v58.31c0,10.456,4.323,14.98,14.075,14.98a20.379,20.379,0,0,0,9.35-2.111l1.206-9.551a15.15,15.15,0,0,1-5.932,1.106c-3.72,0-4.926-1.709-4.926-6.434Z" transform="translate(305.003 595.342)" fill="#5e8e3e"/>
  </g>
</svg>
